<svg version="1.0" id="Github" xmlns="http://www.w3.org/2000/svg" xmlns:xlink="http://www.w3.org/1999/xlink" x="0px" y="0px" viewBox="0 0 512 512" style="enable-background:new 0 0 512 512;" xml:space="preserve">
  <path fill="white" d="m125.51153,106.12669c-0.03955,0.03572 -0.50136,0.1263 -1.02569,0.20029c-1.85492,0.2628 -2.50427,0.45799 -2.50427,0.75524c0,0.16585 -0.15947,0.60853 -0.35593,0.98359c-0.19646,0.37634 -0.35721,0.84964 -0.35721,1.05248c-0.00128,0.20412 -0.13013,0.49881 -0.28832,0.65573c-0.15692,0.15819 -0.19774,0.28577 -0.0893,0.28577c0.10716,0 0.0893,0.13523 -0.03955,0.29852c-0.20667,0.26153 -1.91743,5.19353 -2.07052,5.96918c-0.03189,0.15947 -0.23984,0.89302 -0.46309,1.62912c-0.22198,0.7361 -0.45034,1.53982 -0.50774,1.78858c-0.05741,0.24749 -0.31638,1.25405 -0.57663,2.23764c-0.25897,0.98359 -0.52305,2.05649 -0.58556,2.38435c-0.06251,0.32786 -0.27428,1.2936 -0.47075,2.14707c-0.19774,0.85219 -0.41972,2.03225 -0.49626,2.62292c-0.07527,0.58939 -0.19391,1.3408 -0.2628,1.66866c-1.01931,4.86311 -1.50154,13.79583 -1.06652,19.74459c0.54474,7.45158 1.65208,13.13117 3.83487,19.65656l1.41479,4.22779l-0.78203,1.01804c-0.42992,0.56005 -1.04738,1.30636 -1.37269,1.66101c-0.58939,0.6417 -1.19919,1.37397 -2.20575,2.65481c-0.29214,0.37124 -0.74631,0.92491 -1.00783,1.23109c-0.2628,0.3049 -0.63787,0.78968 -0.83561,1.07545c-0.19646,0.28577 -0.51795,0.71441 -0.71441,0.95298c-0.19774,0.23729 -0.51923,0.66976 -0.71569,0.96063c-0.19646,0.29087 -0.49243,0.66849 -0.65573,0.83944c-0.16457,0.17095 -0.29852,0.4261 -0.29852,0.5677c0,0.14033 -0.10716,0.25515 -0.23856,0.25515c-0.1314,0 -0.23856,0.11099 -0.23856,0.24877c0,0.1365 -0.21432,0.4784 -0.47585,0.75906c-0.2628,0.28194 -0.61108,0.81392 -0.77437,1.18261c-0.16329,0.36869 -0.37762,0.67104 -0.47713,0.67104c-0.09823,0 -0.17988,0.16074 -0.17988,0.35721c0,0.19646 -0.0944,0.35848 -0.2105,0.35848c-0.11609,0 -0.27556,0.18753 -0.35466,0.41717c-0.08037,0.22963 -0.35976,0.73865 -0.62384,1.13285c-0.2628,0.39293 -0.59705,1.01038 -0.7412,1.37014c-0.14416,0.36103 -0.34445,0.65573 -0.44523,0.65573c-0.10078,0 -0.36741,0.4835 -0.59322,1.0729c-0.22453,0.59067 -0.48478,1.07417 -0.57791,1.07417c-0.09313,0 -0.68635,1.09969 -1.31784,2.44304c-0.63277,1.34463 -1.36504,2.89465 -1.62657,3.44449c-0.26153,0.54984 -0.44268,1.03207 -0.40186,1.0729c0.04082,0.04082 -0.0944,0.39548 -0.30235,0.78841c-0.20795,0.3942 -0.4835,0.98359 -0.61235,1.31146c-0.13013,0.32786 -0.34828,0.86495 -0.48478,1.19281c-0.2207,0.52816 -0.53326,1.33059 -0.64935,1.66866c-0.02296,0.06634 -0.11226,0.28066 -0.19902,0.47713c-0.35466,0.80754 -1.55257,4.53142 -1.45689,4.53142c0.05613,0 -0.04975,0.40186 -0.23346,0.89302c-0.18498,0.49243 -0.41717,1.21705 -0.5154,1.60998c-0.09951,0.3942 -0.19646,0.76927 -0.2156,0.83433c-0.27428,0.9096 -0.5996,2.15089 -0.68635,2.62292c-0.05996,0.32786 -0.16712,0.75779 -0.23729,0.95425c-0.07144,0.19646 -0.18626,0.73355 -0.25642,1.19281c-0.06889,0.45927 -0.18243,1.10224 -0.25132,1.4301c-0.13395,0.63149 -0.30363,1.56405 -0.50009,2.74284c-0.06634,0.39293 -0.17605,1.03717 -0.24494,1.4301c-0.06889,0.3942 -0.16202,0.98359 -0.20667,1.31146c-4.47784,32.56958 3.85018,72.91861 19.86706,96.25568c14.12624,20.58275 40.16022,35.65304 72.61371,42.03045c6.73462,1.32422 18.761,3.1179 20.89531,3.1179c1.1724,0 1.06524,0.44651 -0.50774,2.11135c-0.83306,0.88153 -1.78221,1.94678 -2.11007,2.36777c-0.32786,0.42099 -0.84071,1.06141 -1.13923,1.42245c-0.92874,1.12137 -1.00656,1.22854 -1.00656,1.37142c0,0.07654 -0.2156,0.36996 -0.47713,0.6519c-0.2628,0.28066 -0.61108,0.81264 -0.7731,1.18133c-0.16329,0.36869 -0.37889,0.67104 -0.47713,0.67104c-0.09951,0 -0.18115,0.15309 -0.18115,0.34062c0,0.18753 -0.14543,0.48606 -0.32404,0.66466c-0.1786,0.1786 -0.55112,0.80244 -0.82795,1.388c-0.27811,0.58556 -0.59705,1.22471 -0.71059,1.42245c-0.11226,0.19646 -0.50647,1.00145 -0.87516,1.78731c-0.36869,0.78713 -0.82157,1.72607 -1.00656,2.08711c-0.18498,0.36103 -0.25515,0.65573 -0.15564,0.65573c0.09951,0 0.05103,0.12885 -0.10589,0.28577c-0.15692,0.15819 -0.28577,0.41844 -0.28577,0.58046c0,0.16202 -0.12502,0.59705 -0.27811,0.96573c-0.15309,0.36996 -0.28959,0.72589 -0.30235,0.79096c-0.01276,0.06506 -0.10844,0.25387 -0.21305,0.41717c-0.10333,0.16457 -0.12757,0.29852 -0.05231,0.29852c0.07527,0 -0.02679,0.3891 -0.22581,0.86623c-0.19902,0.47585 -0.41079,1.09331 -0.47075,1.37142c-0.05996,0.27684 -0.31766,1.28467 -0.57281,2.23892c-0.25515,0.95425 -0.46564,1.78731 -0.46947,1.8511c-0.00383,0.06506 -0.11864,0.67869 -0.25515,1.36504c-0.24749,1.24129 -0.30618,1.56916 -0.60725,3.39474c-0.32914,1.9927 -0.33297,1.99908 -1.31529,2.26316c-0.51667,0.14033 -1.00528,0.35848 -1.08438,0.48606c-0.0791,0.12757 -0.30235,0.23218 -0.49881,0.23218c-0.19519,0 -0.79861,0.21432 -1.34208,0.47713c-0.54219,0.26153 -1.06652,0.47713 -1.16475,0.47713c-0.09823,0 -0.47968,0.12502 -0.84964,0.27684c-0.36869,0.15309 -0.75141,0.30107 -0.84964,0.32914c-0.09823,0.02679 -0.23218,0.07654 -0.29852,0.10844c-0.06506,0.03317 -0.19902,0.07527 -0.29852,0.09313c-0.09823,0.01914 -0.31256,0.11864 -0.47585,0.22325c-0.16457,0.10333 -0.29852,0.13013 -0.29852,0.05741c0,-0.07144 -0.40186,0.02041 -0.89429,0.20412c-0.49116,0.18498 -1.21578,0.41461 -1.60998,0.51285c-0.39293,0.09696 -0.82157,0.20667 -0.95298,0.24494c-1.31784,0.37507 -5.12081,1.16092 -6.78692,1.40204c-8.2974,1.19792 -17.75827,1.28849 -22.38919,0.2156c-13.04442,-3.02605 -23.89074,-11.86053 -32.68822,-26.62464c-10.32582,-17.33089 -30.51054,-29.08554 -45.14325,-26.2904c-1.82048,0.347 -2.6395,0.53071 -2.74156,0.61363c-0.03317,0.02551 -0.14033,0.06634 -0.23856,0.0893c-0.694,0.16074 -1.25277,0.44268 -1.25277,0.63021c0,0.12247 -0.15309,0.22198 -0.34062,0.22198c-0.51412,0 -1.22854,1.19919 -1.2987,2.18151c-0.21305,3.00309 5.70382,9.58972 11.05937,12.30959c9.86655,5.01365 19.8492,18.9396 27.8991,38.92275c6.37614,15.8319 20.27657,25.63595 40.53656,28.59055c8.04353,1.1724 10.31944,1.32294 20.26892,1.32932c10.3845,0.00765 11.59645,-0.08292 19.31339,-1.44031c2.49152,-0.43885 4.59903,-0.72207 4.68323,-0.62894c0.21177,0.23218 0.35976,60.11786 0.14926,60.83482c-0.87898,3.00181 -1.58191,4.79039 -1.88554,4.79039c-0.11226,0 -0.20284,0.11099 -0.20284,0.24749c0,0.55622 -3.4968,4.04409 -4.05429,4.04409c-0.13013,0 -0.23729,0.0944 -0.23729,0.2105c0,0.11609 -0.18881,0.27428 -0.41844,0.35083c-0.22836,0.07654 -0.57791,0.23346 -0.77437,0.34828c-1.40714,0.8203 -1.90468,0.93894 -5.12719,1.23236c-1.04866,0.09568 33.39626,0.17605 76.54425,0.17733c44.86386,0.00255 77.68604,-0.0842 76.66417,-0.20157c-6.11971,-0.70038 -10.41385,-3.07708 -12.12716,-6.71421c-1.67122,-3.54655 -1.54364,0.23474 -1.70821,-50.84452c-0.13395,-41.38493 -0.18881,-46.32203 -0.55239,-49.00236c-2.05139,-15.1328 -6.23963,-24.99042 -14.0497,-33.06329c-1.36249,-1.40969 -2.02715,-2.2555 -1.81793,-2.31802c0.18115,-0.05486 1.88426,-0.27556 3.78639,-0.49243c33.43708,-3.80297 59.71983,-14.26912 78.84058,-31.39463c18.77631,-16.81805 29.98621,-44.35995 32.55172,-79.97854c2.43411,-33.80322 -5.46398,-59.87547 -24.51968,-80.93279l-1.1673,-1.28977l1.04738,-2.88317c6.66318,-18.35276 5.59794,-40.5085 -3.01967,-62.85304c-0.90705,-2.35246 -1.18516,-2.44942 -7.06886,-2.48259c-5.10167,-0.02807 -7.39673,0.25387 -11.56584,1.41862c-0.72079,0.20284 -1.55512,0.41844 -1.85365,0.48095c-0.29852,0.06379 -1.07545,0.32531 -1.72862,0.58301c-0.65318,0.25642 -1.18644,0.40186 -1.18644,0.32276c0,-0.08037 -0.17733,0.00255 -0.3942,0.18243c-0.21688,0.17988 -0.45927,0.31256 -0.53709,0.29597c-0.07782,-0.01786 -0.39038,0.06379 -0.694,0.1786c-0.30363,0.11609 -0.64552,0.2105 -0.75906,0.2105c-0.11482,0 -0.5103,0.12502 -0.87898,0.27811c-0.36996,0.15181 -0.72462,0.29597 -0.79096,0.31766c-0.2577,0.08803 -1.09713,0.41079 -1.55002,0.59577c-0.81647,0.33424 -1.41862,0.54602 -1.73628,0.61235c-0.1684,0.03444 -0.73227,0.28577 -1.2515,0.55622c-0.5205,0.27173 -0.9466,0.42865 -0.9466,0.35083c0,-0.0791 -0.2679,0.03189 -0.59577,0.24749c-0.32786,0.21432 -0.59577,0.32786 -0.59577,0.2526c0,-0.07654 -0.29597,0.01148 -0.65573,0.19646c-0.36103,0.18371 -1.08565,0.52305 -1.60998,0.75269c-0.52433,0.22963 -1.27574,0.57025 -1.66994,0.75651c-0.39293,0.18753 -0.82157,0.34572 -0.95298,0.35338c-0.1314,0.00893 -0.72207,0.26918 -1.31146,0.58046c-0.59067,0.31256 -3.40239,1.7248 -6.24729,3.14087c-2.84617,1.41479 -5.68979,2.86403 -6.32,3.21869c-0.62894,0.35466 -1.46582,0.81392 -1.86003,1.02059c-0.39293,0.20667 -1.03717,0.58174 -1.4301,0.83433c-1.34335,0.85857 -1.90723,1.18388 -2.32567,1.33697c-0.22836,0.0842 -0.41717,0.24749 -0.41717,0.36359c0,0.11609 -0.12375,0.2105 -0.27556,0.2105c-0.15054,0 -0.62639,0.2679 -1.05631,0.59577c-0.42992,0.32786 -0.89684,0.59705 -1.0359,0.59705c-0.14033,0 -0.25515,0.08165 -0.25515,0.18115c0,0.18243 -0.70676,0.61235 -1.49006,0.90833c-0.22963,0.08675 -0.41717,0.2526 -0.41717,0.36869c0,0.11609 -0.12375,0.2105 -0.27556,0.2105c-0.15181,0 -0.62766,0.2679 -1.05759,0.59577c-0.42992,0.32786 -0.89557,0.59577 -1.0359,0.59577c-0.13906,0 -0.25387,0.08292 -0.25387,0.18243c0,0.18243 -0.70676,0.61235 -1.49006,0.90833c-0.22963,0.08675 -0.41717,0.2526 -0.41717,0.36869c0,0.11609 -0.12502,0.2105 -0.27556,0.2105c-0.15181,0 -0.60853,0.24877 -1.01421,0.55367c-1.20685,0.90577 -1.29998,0.89939 -7.09183,-0.54857c-22.51294,-5.62983 -49.56878,-8.23999 -70.54829,-6.80861c-0.85219,0.05868 -2.56934,0.16967 -3.81446,0.24749c-1.2464,0.07782 -2.69436,0.18243 -3.21996,0.23346c-0.52433,0.05103 -1.91871,0.15947 -3.10004,0.24111c-1.18006,0.08037 -2.30653,0.19008 -2.503,0.24239c-0.19646,0.05231 -1.05503,0.15947 -1.90723,0.23984c-1.67122,0.15564 -9.57058,1.21705 -10.40236,1.39693c-0.53198,0.11482 -1.63167,0.29725 -3.13066,0.51923c-0.82795,0.12247 -4.08746,0.72334 -5.18587,0.95553c-0.2628,0.05486 -0.74631,0.15692 -1.07417,0.22581c-0.32786,0.06889 -0.97084,0.18498 -1.4301,0.25642c-0.45927,0.07144 -1.26426,0.24239 -1.78858,0.37889c-0.52433,0.1365 -1.22216,0.2947 -1.55002,0.3521c-0.32786,0.05613 -0.77565,0.15564 -0.9938,0.22198c-0.40696,0.12247 -1.0461,0.26918 -2.10624,0.4835c-0.56132,0.11354 -5.66427,1.41607 -6.43737,1.64443c-2.35629,0.69273 -2.13303,0.74503 -5.17822,-1.23364c-13.75628,-8.94037 -20.4067,-12.36062 -36.67108,-18.85923c-9.02967,-3.60779 -14.28061,-5.16674 -19.91171,-5.91049c-2.2925,-0.30235 -7.42734,-0.45416 -7.67739,-0.22708m-29.36238,257.54207c2.11135,1.23747 2.51448,2.98905 0.97466,4.23672c-2.23127,1.80517 -7.41076,-2.14324 -5.62855,-4.29031c0.80754,-0.97339 2.9444,-0.94787 4.65389,0.05358m9.38305,8.21703c3.85655,1.96846 4.66027,6.1363 1.43138,7.42479c-1.57426,0.62894 -5.25604,-2.70967 -5.64769,-5.12081c-0.32149,-1.97867 2.17641,-3.34371 4.21631,-2.30398m11.03641,13.52282c3.62309,3.46618 3.86421,7.6608 0.48478,8.42242c-3.3807,0.76289 -7.6557,-6.64532 -4.88863,-8.47345c2.04501,-1.35228 2.94823,-1.3408 4.40385,0.05103m12.10292,14.10073c3.32585,2.13303 5.28793,5.67065 3.93948,7.10203c-0.14033,0.15054 -0.4363,0.4733 -0.657,0.71696c-1.70439,1.88937 -3.68433,1.4671 -6.65042,-1.4199c-2.77983,-2.70712 -3.00309,-3.89228 -1.09203,-5.80333c1.57809,-1.57809 2.69436,-1.72735 4.45998,-0.59577m18.00704,10.87694c3.65244,1.08565 5.20373,3.49297 3.87059,6.00872c-1.12392,2.12155 -4.44595,2.20958 -8.2553,0.21943c-4.79932,-2.5081 -1.04483,-7.84068 4.38471,-6.22815m42.34045,0.98487c2.86531,1.45307 2.70584,4.8478 -0.29725,6.34042c-0.72207,0.35848 -1.04228,0.47713 -2.35629,0.86878c-3.3756,1.00656 -6.41696,-1.15709 -5.85308,-4.16273c0.50774,-2.70074 5.59411,-4.52377 8.50662,-3.04646m-19.12458,2.66119c2.89848,1.4773 2.44559,5.65152 -0.69783,6.44758c-5.37213,1.35866 -8.93399,-0.46309 -8.10221,-4.14615c0.52433,-2.32695 5.96152,-3.74939 8.80004,-2.30143m-76.25083,96.75066c0.16329,0.16457 67.46738,0.1786 67.63068,0.01531c0.07272,-0.07272 -15.14045,-0.13268 -33.80832,-0.13268c-18.66659,0 -33.88742,0.05358 -33.82235,0.11737"/>
  <path fill="#040404" d="m88.47942,1.7165c-0.3942,0.04593 -1.89575,0.20029 -3.33861,0.34572c-20.83024,2.08966 -39.64865,11.34386 -55.69232,27.38753c-15.88293,15.88421 -24.02086,32.14986 -27.35181,54.67301c-0.59832,4.04281 -0.76162,334.69103 -0.16967,341.05696c2.07052,22.24121 10.9892,40.82743 27.52149,57.36099c15.58824,15.58824 32.11414,23.96983 53.90374,27.34288c3.49552,0.54091 96.25823,0.66849 98.77781,0.13523c4.32475,-0.9147 8.35353,-4.65899 9.88824,-9.18914l0.66594,-1.96719l-0.0842,-30.16481c-0.0472,-16.59097 -0.10078,-30.17885 -0.11992,-30.19543c-0.01914,-0.01786 -1.75159,0.27556 -3.85018,0.6519c-8.00015,1.4352 -8.99523,1.51175 -19.55323,1.5143c-10.22376,0.00128 -12.35169,-0.1365 -20.50748,-1.32549c-20.70395,-3.01967 -34.82381,-13.11076 -41.33645,-29.54353c-7.53833,-19.02125 -17.53246,-32.93954 -27.33778,-38.07439c-5.96025,-3.12045 -11.61687,-9.50424 -11.25711,-12.70124c0.61235,-5.42316 16.14063,-5.35172 26.87596,0.12375c11.08871,5.65407 18.13333,12.22412 24.71359,23.04747c8.03715,13.21792 16.6994,20.85448 28.16829,24.83478c10.33092,3.58355 28.17211,2.22489 41.41299,-3.15235l3.32585,-1.35101l0.5154,-2.9814c2.09604,-12.11185 6.60449,-21.82022 13.42841,-28.91204c1.98377,-2.06159 1.99908,-2.08711 1.26808,-2.08711c-3.79277,0 -21.227,-2.95206 -29.64687,-5.02003c-22.28969,-5.47291 -43.77183,-17.18546 -56.66061,-30.88943c-18.91281,-20.112 -29.54225,-54.37449 -28.58418,-92.14142c0.6417,-25.30298 8.04353,-45.14453 23.656,-63.41181l2.26699,-2.65226l-1.08948,-3.13194c-6.55219,-18.83499 -5.2688,-43.62512 3.30926,-63.89276c1.28212,-3.02605 14.19768,-1.8141 25.91533,2.43411c15.77322,5.71786 27.90548,11.71765 41.02007,20.28805l3.95479,2.58464l5.1055,-1.28849c38.14328,-9.62927 79.21692,-9.63182 117.03744,-0.00893l5.10295,1.29743l6.93874,-4.37706c22.88673,-14.4388 44.65337,-22.94031 57.61103,-22.50018c5.11316,0.17478 5.40275,0.30107 6.37869,2.8028c8.66481,22.20804 9.79001,44.46328 3.18041,62.9232c-1.18771,3.31692 -1.2464,2.74284 0.48095,4.69471c20.22427,22.85484 27.39902,49.77673 23.44295,87.96593c-2.60506,25.14606 -11.10147,48.47803 -23.01686,63.20514c-14.87765,18.38721 -39.7354,31.94319 -69.48432,37.89196c-6.89409,1.37907 -19.12841,3.22634 -21.3584,3.22634c-0.95808,0 -0.94787,0.01786 1.23236,2.34863c7.79986,8.33439 11.92687,18.14099 13.9655,33.18193c0.36359,2.68032 0.41844,7.61743 0.55239,49.00236c0.16329,50.72077 0.05613,47.31456 1.58574,50.58172c1.64187,3.51211 5.79312,5.73572 12.13099,6.49861c4.53014,0.54602 92.91579,0.37252 96.69325,-0.18881c39.63972,-5.89901 72.2986,-37.42376 79.39425,-76.63738c1.13541,-6.27535 1.09203,1.96336 0.95808,-178.05342l-0.1263,-169.66034l-0.5205,-3.10004c-3.64861,-21.72709 -11.82609,-37.66105 -27.23317,-53.06941c-16.5208,-16.51953 -35.05727,-25.41907 -57.3393,-27.52787c-3.4649,-0.32786 -333.90135,-0.52943 -336.72073,-0.20539m4.04536,361.55806c-2.05139,0.88919 -1.38928,2.92654 1.40331,4.3222c3.53507,1.7669 5.5788,-1.71969 2.22233,-3.79404c-0.92874,-0.57408 -2.86786,-0.85602 -3.62565,-0.52816m9.87548,9.29758c-1.26936,1.26936 -1.0882,2.66246 0.58939,4.5327c3.20465,3.57207 7.48348,1.38418 5.1004,-2.60761c-1.64953,-2.76452 -4.04026,-3.57462 -5.68979,-1.92509m11.09381,12.36828c-1.23747,0.70676 -1.43776,0.8726 -1.87023,1.54237c-1.48368,2.30271 3.15873,8.06266 5.65917,7.01783c2.45069,-1.02314 2.65864,-3.18041 0.60215,-6.25367c-1.7299,-2.5872 -2.8602,-3.18169 -4.39109,-2.30653m10.95476,15.40326c-1.91233,1.91361 -1.59977,3.29523 1.31911,5.83395c2.74156,2.38435 4.25203,2.65353 5.86967,1.04483c2.17258,-2.15727 1.34463,-4.3324 -2.83596,-7.45796c-1.56533,-1.17113 -2.76197,-1.01166 -4.35282,0.57918m17.7774,10.47125c-2.36777,1.57298 -2.31164,4.33368 0.11226,5.58645c4.62327,2.39201 8.49641,1.56278 8.49641,-1.81793c0,-3.03881 -5.85181,-5.60049 -8.60868,-3.76853m43.18499,0.41206c-3.27992,0.56515 -5.0532,2.38818 -4.64879,4.78019c0.42992,2.54127 3.15107,3.28247 6.91705,1.88044c5.40913,-2.01311 3.48914,-7.65187 -2.26826,-6.66063m-21.73857,3.00181c-1.82686,0.56132 -2.52341,1.68142 -2.36267,3.7966c0.30745,4.04919 10.27096,3.4547 10.27096,-0.61108c0,-3.13959 -3.49169,-4.54545 -7.9083,-3.18552"/>
</svg>