<svg version="1.0" id="LinkedIn" xmlns="http://www.w3.org/2000/svg" xmlns:xlink="http://www.w3.org/1999/xlink" x="0px" y="0px"
	 viewBox="0 0 512 512" style="enable-background:new 0 0 512 512;" xml:space="preserve">
  <path d="m184.86369,412.09784c-3.5635,0.66385 -5.12027,2.33632 -4.67381,5.00339c0.44412,2.66824 2.44618,3.55999 6.005,2.66824c3.5635,-0.88825 5.1191,-2.44852 4.67147,-4.67147c-0.44179,-2.44501 -2.44384,-3.44779 -6.00267,-3.00016z"/>
  <path d="m165.84239,414.76959c-3.55999,0 -5.33882,1.21666 -5.33882,3.66869c0,2.89147 1.8922,4.11164 5.67191,3.66752c3.55999,0 5.34116,-1.22367 5.34116,-3.66752c0,-2.88797 -1.8922,-4.11632 -5.67425,-3.66869z"/>
  <path d="m139.81563,413.76097c-0.88825,2.44852 0.55866,4.11281 4.33721,5.0069c3.33676,1.32886 5.45102,0.66385 6.33927,-2.00323c0.66852,-2.44384 -0.77838,-4.21916 -4.33721,-5.33882c-3.33793,-0.88708 -5.44985,-0.11921 -6.33927,2.33515z"/>
  <path d="m484.33906,28.1936c-18.79807,-18.79457 -41.42729,-28.1936 -67.90518,-28.1936l-320.33394,0c-26.46971,0 -49.1071,9.39904 -67.90634,28.1936c-18.79457,18.79807 -28.1936,41.43547 -28.1936,67.90634l0,320.33861c0,26.47204 9.39904,49.1071 28.1936,67.90167c18.79807,18.79807 41.43664,28.19711 67.90634,28.19711l74.74466,0c4.89002,0 8.56338,-0.1683 11.00957,-0.49555c2.44501,-0.3366 4.89002,-1.7835 7.33854,-4.34422c2.44969,-2.55604 3.66986,-6.28317 3.66986,-11.17553c0,-0.66385 -0.05844,-8.23497 -0.1683,-22.6935c-0.11337,-14.4632 -0.1683,-25.91806 -0.1683,-34.37275l-7.67514,1.33587c-4.89353,0.88825 -11.06683,1.27977 -18.51991,1.16757c-7.44957,-0.1122 -15.18198,-0.88825 -23.18904,-2.33515c-8.01174,-1.44807 -15.46131,-4.78367 -22.35807,-10.00678c-6.89325,-5.23247 -11.78678,-12.07078 -14.67942,-20.52197l-3.33793,-7.67981c-2.22412,-5.11092 -5.72568,-10.78634 -10.50934,-17.0099c-4.78367,-6.23174 -9.6211,-10.45909 -14.51463,-12.68321l-2.33632,-1.66897c-1.5556,-1.11148 -3.00133,-2.45202 -4.33721,-4.00762c-1.33354,-1.56027 -2.33398,-3.11938 -3.00133,-4.67147c-0.66735,-1.56027 -0.11337,-2.84005 1.6678,-3.844c1.78117,-0.99928 5.00339,-1.49482 9.6772,-1.49482l6.67119,0.99928c4.45058,0.88825 9.95302,3.55532 16.51902,8.00706c6.56133,4.44824 11.95508,10.23118 16.18242,17.34766c5.1191,9.12321 11.28656,16.07023 18.51991,20.85389c7.22751,4.78834 14.51463,7.17959 21.85434,7.17959s13.67898,-0.55632 19.02013,-1.66429c5.33531,-1.11498 10.34104,-2.78745 15.01485,-5.01157c2.00206,-14.90265 7.45308,-26.36569 16.34839,-34.37275c-12.67853,-1.33587 -24.07846,-3.33559 -34.20328,-6.00734c-10.11898,-2.67175 -20.57573,-7.00662 -31.36324,-13.01513c-10.79218,-6.00734 -19.74476,-13.45458 -26.86357,-22.35807c-7.11765,-8.90349 -12.95903,-20.58158 -17.51596,-35.0366c-4.55927,-14.4632 -6.83949,-31.14936 -6.83949,-50.05612c0,-26.915 8.79012,-49.83172 26.36335,-68.73849c-8.23263,-20.24264 -7.45542,-42.93029 2.33398,-68.06997c6.45146,-2.00323 16.0188,-0.50022 28.69733,4.50551c12.68087,5.00924 21.96537,9.29268 27.86285,12.84683c5.89748,3.55532 10.62271,6.56133 14.1827,9.01101c20.69261,-5.78411 42.04672,-8.67558 64.06819,-8.67558c22.0203,0 43.37792,2.89147 64.0717,8.67558l12.6797,-8.00823c8.67909,-5.34116 18.91027,-10.23469 30.70173,-14.68176c11.79029,-4.44824 20.79779,-5.67308 27.02953,-3.66986c10.00678,25.13968 10.90204,47.82733 2.66357,68.0688c17.57323,18.9091 26.36569,41.82466 26.36569,68.73966c0,18.91027 -2.28022,35.65253 -6.83949,50.21975c-4.55576,14.57073 -10.4474,26.25349 -17.68309,35.0401c-7.22751,8.78778 -16.23852,16.17892 -27.02603,22.18977c-10.78984,6.00384 -21.24542,10.34689 -31.36908,13.01045c-10.12249,2.67175 -21.52125,4.67965 -34.20095,6.01552c11.56004,10.00678 17.34299,25.79651 17.34299,47.37853l0,79.75273c0,3.78322 0.55165,6.83949 1.66429,9.17581c1.11966,2.33515 2.89615,3.94334 5.34233,4.83977c2.4567,0.88825 4.61537,1.4434 6.51107,1.66429c1.8957,0.22323 4.61537,0.33543 8.17536,0.33543l74.74466,0c26.46971,0 49.10827,-9.39904 67.89816,-28.19711c18.79807,-18.79807 28.19711,-41.43664 28.19711,-67.90634l0,-320.32342c-0.00234,-26.47088 -9.40137,-49.11178 -28.19594,-67.90634z"/>
  <path d="m101.43877,373.05713c-1.5556,1.10797 -1.33354,2.88797 0.66852,5.33531c2.22763,2.22295 4.00528,2.55838 5.34116,0.99928c1.5556,-1.10797 1.33354,-2.88797 -0.67203,-5.33999c-2.22295,-1.99855 -4.00178,-2.33398 -5.33765,-0.9946z"/>
  <path d="m90.43037,364.71464c-0.66618,1.56027 0.1122,2.89615 2.33632,4.00412c1.77766,1.11615 3.22807,0.89643 4.33721,-0.66385c0.66618,-1.56027 -0.1122,-2.89615 -2.33632,-4.0123c-2.22412,-0.66852 -3.66986,-0.44412 -4.33721,0.67203z"/>
  <path d="m111.78566,386.07226c-2.0044,1.10797 -2.0044,3.11587 0,6.00384c2.00206,2.89615 3.88958,3.67219 5.67191,2.33515c2.00323,-1.5591 2.00323,-3.67219 0,-6.34277c-1.77766,-2.88446 -3.66986,-3.55999 -5.67191,-1.99621z"/>
  <path d="m123.46725,401.08244c-2.00323,1.7835 -1.56144,3.88841 1.33471,6.34394c2.6659,2.66357 4.89119,2.999 6.67119,0.99226c1.78117,-1.77532 1.33587,-3.88724 -1.33471,-6.33459c-2.6659,-2.66474 -4.89119,-3.00133 -6.67119,-1.00161z"/>
</svg>
