<svg version="1.0" id="LinkedIn" xmlns="http://www.w3.org/2000/svg" xmlns:xlink="http://www.w3.org/1999/xlink" x="0px" y="0px"
	 viewBox="0 0 512 512" style="enable-background:new 0 0 512 512;" xml:space="preserve">
  <path stroke="null" id="svg_1" fill="#0077B7" d="m466.59496,0l-420.18995,0c-25.62851,0 -46.40501,20.7765 -46.40501,46.40501l0,420.18861c0,25.62985 20.7765,46.40635 46.40501,46.40635l420.18861,0c25.62985,0 46.40635,-20.7765 46.40635,-46.40635l0,-420.18861c0,-25.62851 -20.7765,-46.40501 -46.40501,-46.40501zm-307.85102,442.95802c0,7.45864 -6.04588,13.50452 -13.50452,13.50452l-57.48554,0c-7.45864,0 -13.50452,-6.04588 -13.50452,-13.50452l0,-240.97704c0,-7.45864 6.04588,-13.50452 13.50452,-13.50452l57.48554,0c7.45864,0 13.50452,6.04588 13.50452,13.50452l0,240.97704zm-42.24729,-277.19725c-30.16091,0 -54.61167,-24.45076 -54.61167,-54.61167s24.45076,-54.61167 54.61167,-54.61167s54.61167,24.45076 54.61167,54.61167s-24.44942,54.61167 -54.61167,54.61167zm342.66518,278.28503c0,6.85701 -5.55974,12.41675 -12.41675,12.41675l-61.68623,0c-6.85701,0 -12.41675,-5.55974 -12.41675,-12.41675l0,-113.03189c0,-16.86185 4.94602,-73.88945 -44.06562,-73.88945c-38.01706,0 -45.72817,39.03366 -47.27657,56.55086l0,130.37048c0,6.85701 -5.55839,12.41675 -12.41675,12.41675l-59.66109,0c-6.85701,0 -12.41675,-5.55974 -12.41675,-12.41675l0,-243.15259c0,-6.85701 5.55974,-12.41675 12.41675,-12.41675l59.66109,0c6.85701,0 12.41675,5.55974 12.41675,12.41675l0,21.0236c14.09676,-21.15521 35.04649,-37.48391 79.65197,-37.48391c98.77532,0 98.20995,92.28091 98.20995,142.98464l0,116.62826l0,0z"/>
</svg>